<svg xmlns="http://www.w3.org/2000/svg" xmlns:xlink="http://www.w3.org/1999/xlink" id="Layer_1" width="168" height="70.666" x="0" y="0" enable-background="new 0 0 168 70.666" version="1.1" viewBox="0 0 168 70.666" xml:space="preserve"><switch><g><polygon fill="#FFF" stroke="#000" stroke-miterlimit="10" points="35.913 63.115 12.607 49.659 12.607 22.747 35.914 9.291 59.22 22.748 59.22 49.659"/><polygon fill="#FFF" stroke="#000" stroke-miterlimit="10" stroke-width=".774" points="35.913 57.031 17.876 46.617 17.876 25.789 35.914 15.375 53.951 25.789 53.951 46.617"/><polygon fill="#FFF" stroke="#000" stroke-miterlimit="10" stroke-width=".554" points="36.112 51.579 23.196 44.122 23.196 29.207 36.113 21.749 49.029 29.207 49.029 44.122"/><g><path d="M81.281,29.603c-0.798,0-1.514-0.122-2.148-0.367c-0.634-0.244-1.173-0.604-1.619-1.081 c-0.445-0.476-0.784-1.05-1.016-1.721c-0.231-0.671-0.348-1.43-0.348-2.277c0-0.872,0.117-1.638,0.353-2.296 c0.235-0.659,0.56-1.22,0.974-1.684c0.451-0.501,0.98-0.874,1.586-1.118c0.606-0.245,1.258-0.367,1.958-0.367 c0.692,0,1.3,0.115,1.823,0.343c0.523,0.229,0.97,0.56,1.341,0.993c0.371,0.433,0.654,0.957,0.849,1.573 c0.195,0.615,0.292,1.319,0.292,2.11v0.835h-7.394v0.056c0,1.132,0.297,2.007,0.891,2.625c0.284,0.297,0.629,0.526,1.034,0.687 c0.405,0.161,0.889,0.241,1.452,0.241c0.562,0,1.135-0.086,1.716-0.26c0.6-0.179,1.234-0.442,1.902-0.789v1.698 c-0.328,0.136-0.646,0.254-0.956,0.353c-0.31,0.099-0.616,0.182-0.918,0.25c-0.297,0.068-0.594,0.117-0.891,0.148 C81.865,29.587,81.571,29.603,81.281,29.603z M83.619,23.211c-0.013-0.532-0.082-0.988-0.208-1.368 c-0.127-0.381-0.292-0.688-0.497-0.923c-0.223-0.26-0.498-0.455-0.826-0.584c-0.328-0.13-0.696-0.195-1.104-0.195 c-0.835,0-1.516,0.272-2.041,0.816c-0.532,0.551-0.848,1.305-0.946,2.264L83.619,23.211z"/><path d="M91.226,23.916l-3.72-4.973h1.893l2.755,3.757l2.737-3.757h1.92l-3.72,4.973l4.082,5.418h-1.976l-3.043-4.166 l-3.034,4.166h-1.976L91.226,23.916z"/><path d="M102.637,29.603c-1.076,0-1.927-0.3-2.551-0.9c-0.297-0.284-0.529-0.62-0.696-1.007c-0.167-0.386-0.25-0.852-0.25-1.396 c0-1.144,0.39-2.019,1.169-2.625c0.767-0.6,1.905-0.9,3.414-0.9h2.292v-0.269c0-0.396-0.053-0.748-0.158-1.058 c-0.105-0.309-0.263-0.56-0.473-0.751c-0.204-0.186-0.473-0.325-0.807-0.417s-0.724-0.139-1.169-0.139 c-0.588,0-1.178,0.083-1.772,0.25c-0.6,0.167-1.178,0.412-1.735,0.733v-1.707c0.26-0.099,0.547-0.198,0.863-0.297 c0.315-0.099,0.634-0.182,0.956-0.25c0.562-0.117,1.128-0.176,1.698-0.176c0.439,0,0.838,0.033,1.197,0.097 c0.358,0.065,0.692,0.163,1.002,0.292c0.284,0.124,0.555,0.28,0.812,0.468c0.257,0.189,0.475,0.407,0.654,0.654 c0.13,0.18,0.235,0.368,0.315,0.566c0.08,0.198,0.142,0.393,0.186,0.584c0.099,0.452,0.148,1.135,0.148,2.05v2.125 c0.012,0.359,0.021,0.674,0.028,0.946c0.006,0.272,0.024,0.526,0.056,0.761c0.031,0.26,0.066,0.504,0.107,0.733 c0.04,0.229,0.075,0.402,0.106,0.52c0.043,0.192,0.093,0.373,0.148,0.542c0.056,0.17,0.089,0.271,0.102,0.302h-1.716 c-0.031-0.074-0.069-0.184-0.116-0.329c-0.046-0.146-0.091-0.305-0.134-0.478c-0.031-0.136-0.06-0.274-0.088-0.413 c-0.027-0.14-0.048-0.258-0.06-0.357c-0.18,0.31-0.41,0.584-0.691,0.826c-0.282,0.241-0.559,0.433-0.831,0.575 c-0.297,0.155-0.611,0.268-0.942,0.338C103.369,29.567,103.014,29.603,102.637,29.603z M102.99,28.174 c0.934,0,1.67-0.328,2.208-0.983c0.544-0.668,0.816-1.568,0.816-2.7v-0.38h-2.162c-0.99,0-1.738,0.173-2.245,0.52 c-0.266,0.18-0.459,0.4-0.58,0.664c-0.12,0.263-0.181,0.567-0.181,0.914c0,0.322,0.049,0.602,0.148,0.839 c0.099,0.238,0.238,0.441,0.417,0.608c0.179,0.161,0.397,0.288,0.654,0.38C102.323,28.128,102.631,28.174,102.99,28.174z"/><path d="M110.328,18.943h1.401l0.148,0.891c0.204-0.371,0.46-0.655,0.77-0.854c0.303-0.191,0.652-0.288,1.048-0.288 c0.458,0,0.847,0.108,1.169,0.325c0.303,0.21,0.544,0.538,0.724,0.983c0.216-0.451,0.485-0.782,0.807-0.993 c0.321-0.21,0.711-0.315,1.169-0.315c0.427,0,0.789,0.082,1.085,0.246c0.297,0.164,0.525,0.404,0.687,0.719 c0.34,0.644,0.51,1.862,0.51,3.655v6.021h-1.559v-5.947c0-0.396-0.004-0.742-0.014-1.039c-0.009-0.297-0.024-0.555-0.046-0.775 c-0.022-0.219-0.048-0.405-0.079-0.557c-0.031-0.151-0.068-0.273-0.111-0.366c-0.068-0.161-0.173-0.289-0.315-0.385 c-0.143-0.096-0.343-0.144-0.603-0.144c-0.235,0-0.433,0.045-0.594,0.134c-0.161,0.09-0.288,0.234-0.38,0.432 c-0.105,0.217-0.18,0.537-0.223,0.96c-0.043,0.424-0.065,1.004-0.065,1.74v5.947h-1.559v-5.947c0-0.451-0.006-0.833-0.019-1.146 c-0.013-0.312-0.031-0.573-0.056-0.784c-0.025-0.21-0.054-0.379-0.088-0.505c-0.034-0.127-0.069-0.23-0.106-0.311 c-0.081-0.161-0.196-0.288-0.348-0.38c-0.152-0.093-0.348-0.139-0.589-0.139c-0.26,0-0.462,0.051-0.608,0.153 c-0.145,0.103-0.255,0.237-0.329,0.404c-0.043,0.093-0.082,0.21-0.116,0.353c-0.034,0.143-0.063,0.32-0.088,0.534 c-0.025,0.213-0.043,0.468-0.056,0.765c-0.013,0.297-0.019,0.649-0.019,1.058v5.947h-1.549V18.943z"/><path d="M122.519,18.943h1.549l0.167,1.327c0.291-0.52,0.671-0.912,1.141-1.178c0.47-0.266,1.017-0.399,1.642-0.399 c0.618,0,1.175,0.121,1.67,0.362c0.495,0.241,0.921,0.606,1.28,1.095c0.358,0.489,0.626,1.068,0.802,1.739 c0.177,0.671,0.265,1.431,0.265,2.278c0,1.701-0.359,3.031-1.076,3.989c-0.718,0.965-1.701,1.447-2.95,1.447 c-0.353,0-0.659-0.036-0.918-0.107c-0.26-0.071-0.504-0.171-0.733-0.301c-0.482-0.278-0.857-0.668-1.123-1.169v5.26h-1.716 V18.943z M126.758,28.156c0.829,0,1.45-0.337,1.865-1.011c0.414-0.674,0.622-1.673,0.622-2.997c0-1.323-0.208-2.322-0.622-2.997 c-0.415-0.674-1.036-1.011-1.865-1.011c-0.829,0-1.457,0.337-1.883,1.011c-0.427,0.681-0.64,1.679-0.64,2.997 s0.213,2.313,0.64,2.987C125.302,27.816,125.929,28.156,126.758,28.156z"/><path d="M138.48,29.176c-0.393-0.154-0.737-0.405-1.034-0.751c-0.563-0.655-0.844-1.583-0.844-2.783v-9.407h-2.737v-1.336h4.444 v10.743c0,0.773,0.142,1.352,0.427,1.735c0.148,0.204,0.326,0.353,0.534,0.445c0.207,0.093,0.443,0.139,0.709,0.139h1.995v1.447 h-2.162C139.316,29.408,138.873,29.331,138.48,29.176z"/><path d="M149.915,29.603c-0.798,0-1.514-0.122-2.148-0.367c-0.634-0.244-1.173-0.604-1.619-1.081 c-0.445-0.476-0.784-1.05-1.016-1.721c-0.231-0.671-0.348-1.43-0.348-2.277c0-0.872,0.117-1.638,0.353-2.296 c0.235-0.659,0.56-1.22,0.974-1.684c0.451-0.501,0.98-0.874,1.586-1.118c0.606-0.245,1.258-0.367,1.958-0.367 c0.692,0,1.3,0.115,1.823,0.343c0.523,0.229,0.97,0.56,1.341,0.993c0.371,0.433,0.654,0.957,0.849,1.573 c0.195,0.615,0.292,1.319,0.292,2.11v0.835h-7.394v0.056c0,1.132,0.297,2.007,0.891,2.625c0.284,0.297,0.629,0.526,1.034,0.687 c0.405,0.161,0.889,0.241,1.452,0.241c0.562,0,1.135-0.086,1.716-0.26c0.6-0.179,1.234-0.442,1.902-0.789v1.698 c-0.328,0.136-0.646,0.254-0.956,0.353c-0.31,0.099-0.616,0.182-0.918,0.25c-0.297,0.068-0.594,0.117-0.891,0.148 C150.499,29.587,150.205,29.603,149.915,29.603z M152.252,23.211c-0.013-0.532-0.082-0.988-0.208-1.368 c-0.127-0.381-0.292-0.688-0.497-0.923c-0.223-0.26-0.498-0.455-0.826-0.584c-0.328-0.13-0.696-0.195-1.104-0.195 c-0.835,0-1.516,0.272-2.041,0.816c-0.532,0.551-0.848,1.305-0.946,2.264L152.252,23.211z"/><path d="M81.285,51.976c-0.393-0.154-0.737-0.405-1.034-0.751c-0.563-0.655-0.844-1.583-0.844-2.783v-9.407H76.67v-1.336h4.444 v10.743c0,0.773,0.142,1.352,0.427,1.735c0.148,0.204,0.326,0.353,0.534,0.445c0.207,0.093,0.443,0.139,0.709,0.139h1.995v1.447 h-2.162C82.122,52.208,81.678,52.131,81.285,51.976z"/><path d="M92.154,52.403c-0.711,0-1.344-0.116-1.897-0.348c-0.553-0.231-1.022-0.58-1.405-1.043 c-0.39-0.482-0.677-1.065-0.863-1.749c-0.186-0.684-0.278-1.458-0.278-2.324c0-1.756,0.38-3.104,1.141-4.045 c0.761-0.934,1.861-1.401,3.303-1.401c0.742,0,1.387,0.119,1.935,0.357c0.547,0.238,1.006,0.586,1.377,1.044 c0.761,0.94,1.141,2.286,1.141,4.036c0,0.885-0.094,1.67-0.283,2.356c-0.188,0.687-0.475,1.262-0.858,1.726 c-0.371,0.458-0.833,0.804-1.387,1.039C93.525,52.285,92.883,52.403,92.154,52.403z M92.154,50.956 c0.872,0,1.531-0.34,1.976-1.021c0.445-0.674,0.668-1.67,0.668-2.987s-0.223-2.316-0.668-2.997 c-0.445-0.674-1.104-1.011-1.976-1.011c-0.866,0-1.521,0.337-1.967,1.011c-0.445,0.681-0.668,1.679-0.668,2.997 s0.223,2.313,0.668,2.987C90.632,50.616,91.288,50.956,92.154,50.956z"/><path d="M103.454,56.216c-0.241,0-0.482-0.011-0.724-0.032c-0.241-0.022-0.492-0.055-0.751-0.098 c-0.254-0.043-0.506-0.096-0.756-0.158c-0.251-0.062-0.512-0.136-0.784-0.223v-1.688c0.303,0.142,0.595,0.266,0.877,0.371 c0.281,0.105,0.539,0.191,0.774,0.26c0.482,0.136,0.949,0.204,1.401,0.204c0.458,0,0.847-0.062,1.169-0.186 c0.321-0.124,0.59-0.315,0.807-0.575c0.42-0.495,0.631-1.287,0.631-2.375v-1.234c-0.266,0.575-0.637,1.008-1.113,1.299 c-0.47,0.285-1.039,0.427-1.707,0.427c-1.219,0-2.189-0.485-2.913-1.457c-0.724-0.971-1.085-2.27-1.085-3.896 c0-1.626,0.362-2.928,1.085-3.906c0.365-0.488,0.787-0.854,1.267-1.095c0.479-0.241,1.031-0.362,1.656-0.362 c0.321,0,0.623,0.033,0.905,0.097c0.281,0.065,0.539,0.166,0.774,0.302c0.47,0.272,0.847,0.684,1.132,1.234l0.167-1.345h1.54 v9.686c0,1.552-0.368,2.733-1.104,3.544C105.971,55.813,104.888,56.216,103.454,56.216z M103.648,50.789 c0.804,0,1.413-0.337,1.828-1.011c0.414-0.674,0.622-1.648,0.622-2.922c0-1.286-0.208-2.26-0.622-2.922 c-0.217-0.353-0.481-0.606-0.793-0.761c-0.312-0.154-0.66-0.232-1.043-0.232c-0.829,0-1.463,0.331-1.902,0.993 c-0.439,0.662-0.659,1.639-0.659,2.932c0,1.268,0.223,2.239,0.668,2.913C102.192,50.452,102.826,50.789,103.648,50.789z"/><path d="M115.032,52.403c-0.711,0-1.344-0.116-1.897-0.348c-0.553-0.231-1.022-0.58-1.405-1.043 c-0.39-0.482-0.677-1.065-0.863-1.749c-0.186-0.684-0.278-1.458-0.278-2.324c0-1.756,0.38-3.104,1.141-4.045 c0.761-0.934,1.861-1.401,3.303-1.401c0.742,0,1.387,0.119,1.935,0.357c0.547,0.238,1.006,0.586,1.377,1.044 c0.761,0.94,1.141,2.286,1.141,4.036c0,0.885-0.094,1.67-0.283,2.356c-0.188,0.687-0.475,1.262-0.858,1.726 c-0.371,0.458-0.833,0.804-1.387,1.039C116.403,52.285,115.761,52.403,115.032,52.403z M115.032,50.956 c0.872,0,1.531-0.34,1.976-1.021c0.445-0.674,0.668-1.67,0.668-2.987s-0.223-2.316-0.668-2.997 c-0.445-0.674-1.104-1.011-1.976-1.011c-0.866,0-1.521,0.337-1.967,1.011c-0.445,0.681-0.668,1.679-0.668,2.997 s0.223,2.313,0.668,2.987C113.51,50.616,114.166,50.956,115.032,50.956z"/></g></g></switch></svg>